<?xml version="1.0" standalone="no"?>
<svg id="NotSound-icon" xmlns="http://www.w3.org/2000/svg" viewBox="50 50 115.000000 115.000000">
<g transform="translate(0.000000,211.000000) scale(0.100000,-0.100000)"
stroke="none">
<path d="M1011 1436 l-128 -125 154 -153 153 -153 0 258 c0 259 -5 297 -36
297 -8 0 -73 -56 -143 -124z"/>
<path d="M587 1523 c-26 -25 13 -68 473 -528 414 -414 482 -478 497 -469 50
31 47 35 -449 531 -453 453 -496 492 -521 466z"/>
<path d="M1412 1378 c-21 -21 -13 -49 27 -94 51 -58 78 -118 93 -203 17 -101
-9 -196 -85 -303 -10 -15 -7 -22 16 -45 l28 -28 25 30 c53 65 104 205 104 286
0 107 -56 248 -129 327 -42 44 -59 50 -79 30z"/>
<path d="M1279 1254 c-14 -17 -13 -20 45 -103 42 -60 48 -157 13 -223 l-24
-47 29 -28 c32 -31 30 -32 71 42 33 60 32 201 -2 267 -47 93 -100 130 -132 92z"/>
<path d="M550 1231 c-6 -12 -10 -98 -10 -210 0 -234 -10 -221 165 -221 l120 0
155 -150 c85 -82 163 -149 172 -150 31 0 38 35 38 187 l0 148 -208 208 -207
207 -107 0 c-96 0 -108 -2 -118 -19z"/>
</g>
</svg>
