<svg id="linkedin-logo" width="40" height="40" xmlns="http://www.w3.org/2000/svg" viewBox="0 0 317.000000 318.000000">
  <rect width="230" height="230" x="50" y="50" fill="#fff"/>
  <g transform="translate(0.000000,318.000000) scale(0.100000,-0.100000)"
     fill="#003d99" stroke="none">
  <path d="M540 3079 c-124 -33 -195 -74 -290 -169 -96 -96 -137 -167 -170 -294
          -19 -78 -20 -106 -20 -1016 0 -910 1 -938 20 -1016 33 -127 74 -198 170 -294
          96 -96 167 -137 294 -170 78 -19 106 -20 1016 -20 910 0 938 1 1016 20 127 33
          198 74 294 170 96 96 137 167 170 294 19 78 20 106 20 1016 0 910 -1 938 -20
          1016 -33 127 -74 198 -170 294 -96 96 -167 137 -294 170 -78 19 -105 20 -1020
          19 -905 0 -944 -1 -1016 -20z m449 -412 c60 -40 94 -97 99 -167 7 -100 -36
          -178 -121 -222 -58 -29 -157 -23 -211 15 -190 129 -97 416 130 404 47 -2 72
          -9 103 -30z m71 -1257 l0 -690 -187 2 -188 3 -3 688 -2 687 190 0 190 0 0
          -690z m630 591 l0 -99 63 63 c84 82 183 125 304 133 238 15 392 -89 479 -323
          17 -46 19 -92 22 -553 l3 -502 -188 2 -188 3 -5 405 c-5 398 -5 406 -28 452
          -47 95 -113 138 -209 138 -100 -1 -177 -51 -224 -147 -24 -47 -24 -53 -29
          -448 l-5 -400 -187 -3 -188 -2 0 690 0 690 190 0 190 0 0 -99z"/>
  </g>
</svg>
